<?xml version="1.0" encoding="UTF-8" standalone="yes"?><svg xmlns="http://www.w3.org/2000/svg" xmlns:xlink="http://www.w3.org/1999/xlink" height="760px" style="width:1319px;height:760px;" version="1.1" viewBox="0 0 1319 760" width="1319px"><defs><filter height="300%" id="f1" width="300%" x="-1" y="-1"><feGaussianBlur result="blurOut" stdDeviation="2.0"/><feColorMatrix in="blurOut" result="blurOut2" type="matrix" values="0 0 0 0 0 0 0 0 0 0 0 0 0 0 0 0 0 0 .4 0"/><feOffset dx="4.0" dy="4.0" in="blurOut2" result="blurOut3"/><feBlend in="SourceGraphic" in2="blurOut3" mode="normal"/></filter></defs><g><rect fill="#FFFFFF" filter="url(#f1)" height="729" style="stroke: #000000; stroke-width: 2.0;" width="1290" x="22" y="24"/><text fill="#000000" font-family="sans-serif" font-size="14" font-weight="bold" lengthAdjust="spacingAndGlyphs" textLength="42" x="646" y="42.5352">RuiBu</text><rect fill="#FFF9F9" filter="url(#f1)" height="197.5723" style="stroke: #DC504F; stroke-width: 1.5;" width="148" x="402" y="79.5"/><ellipse cx="439.05" cy="95.5" fill="#DC504F" rx="11" ry="11" style="stroke: #DC504F; stroke-width: 1.0;"/><path d="M443.2805,91.2651 L438.0095,91.2651 L438.0095,93.938 L442.8073,93.938 L442.8073,96.0962 L438.0095,96.0962 L438.0095,101.5 L435.5607,101.5 L435.5607,89.1069 L443.2805,89.1069 Z "/><text fill="#000000" font-family="sans-serif" font-size="12" lengthAdjust="spacingAndGlyphs" textLength="67" x="457.95" y="100.0352">Transaction</text><line style="stroke: #DC504F; stroke-width: 1.5;" x1="403" x2="549" y1="111.5" y2="111.5"/><text fill="#4041A4" font-family="sans-serif" font-size="14" font-weight="bold" lengthAdjust="spacingAndGlyphs" textLength="107" x="408" y="129.0352">DOC_ID: String</text><text fill="#000000" font-family="sans-serif" font-size="11" lengthAdjust="spacingAndGlyphs" textLength="125" x="408" y="142.623">DOC_DATE: Timestamp</text><text fill="#6666FF" font-family="sans-serif" font-size="12" font-weight="bold" lengthAdjust="spacingAndGlyphs" textLength="121" x="408" y="156.5449">INVMOVE_ID: String</text><text fill="#6666FF" font-family="sans-serif" font-size="12" font-weight="bold" lengthAdjust="spacingAndGlyphs" textLength="104" x="408" y="170.6777">STORE_ID: String</text><text fill="#6666FF" font-family="sans-serif" font-size="12" font-weight="bold" lengthAdjust="spacingAndGlyphs" textLength="88" x="408" y="184.8105">STK_ID: String</text><line style="stroke: #DC504F; stroke-width: 1.0;" x1="403" x2="549" y1="191.3418" y2="191.3418"/><text fill="#000000" font-family="sans-serif" font-size="11" lengthAdjust="spacingAndGlyphs" textLength="82" x="408" y="205.9766">STK_QTY: Long</text><text fill="#000000" font-family="sans-serif" font-size="11" lengthAdjust="spacingAndGlyphs" textLength="81" x="408" y="218.9316">UOM_ID: String</text><text fill="#000000" font-family="sans-serif" font-size="11" lengthAdjust="spacingAndGlyphs" textLength="89" x="408" y="231.8867">SRC_PRICE: Float</text><text fill="#000000" font-family="sans-serif" font-size="11" lengthAdjust="spacingAndGlyphs" textLength="136" x="408" y="244.8418">ORI_IN_DATE: Timestamp</text><text fill="#000000" font-family="sans-serif" font-size="11" lengthAdjust="spacingAndGlyphs" textLength="96" x="408" y="257.7969">SRC_CODE: String</text><text fill="#000000" font-family="sans-serif" font-size="11" lengthAdjust="spacingAndGlyphs" textLength="95" x="408" y="270.752">MOVE_FLG: String</text><rect fill="#CDCDCD" filter="url(#f1)" height="77.4434" style="stroke: #3E93B5; stroke-width: 1.5;" width="134" x="229" y="439.5"/><ellipse cx="272.8" cy="455.5" fill="#3E93B5" rx="11" ry="11" style="stroke: #3E93B5; stroke-width: 1.0;"/><path d="M272.3859,451.3149 L272.3859,459.292 L273.05,459.292 Q274.4943,459.292 275.1086,458.3831 Q275.7229,457.4741 275.7229,455.291 Q275.7229,453.1245 275.1086,452.2197 Q274.4943,451.3149 273.05,451.3149 Z M269.9372,449.1069 L272.5603,449.1069 Q275.5983,449.1069 276.9348,450.5554 Q278.2712,452.0039 278.2712,455.291 Q278.2712,458.5864 276.9348,460.0432 Q275.5983,461.5 272.5603,461.5 L269.9372,461.5 Z "/><text fill="#000000" font-family="sans-serif" font-size="12" lengthAdjust="spacingAndGlyphs" textLength="38" x="293.2" y="460.0352">STORE</text><line style="stroke: #3E93B5; stroke-width: 1.5;" x1="230" x2="362" y1="471.5" y2="471.5"/><text fill="#4041A4" font-family="sans-serif" font-size="14" font-weight="bold" lengthAdjust="spacingAndGlyphs" textLength="122" x="235" y="489.0352">STORE_ID: String</text><text fill="#000000" font-family="sans-serif" font-size="11" lengthAdjust="spacingAndGlyphs" textLength="31" x="235" y="502.623">NAME</text><line style="stroke: #3E93B5; stroke-width: 1.5;" x1="230" x2="362" y1="508.9434" y2="508.9434"/><rect fill="#CDCDCD" filter="url(#f1)" height="77.4434" style="stroke: #3E93B5; stroke-width: 1.5;" width="155" x="398.5" y="439.5"/><ellipse cx="439.15" cy="455.5" fill="#3E93B5" rx="11" ry="11" style="stroke: #3E93B5; stroke-width: 1.0;"/><path d="M438.7359,451.3149 L438.7359,459.292 L439.4,459.292 Q440.8443,459.292 441.4586,458.3831 Q442.0729,457.4741 442.0729,455.291 Q442.0729,453.1245 441.4586,452.2197 Q440.8443,451.3149 439.4,451.3149 Z M436.2872,449.1069 L438.9103,449.1069 Q441.9483,449.1069 443.2848,450.5554 Q444.6212,452.0039 444.6212,455.291 Q444.6212,458.5864 443.2848,460.0432 Q441.9483,461.5 438.9103,461.5 L436.2872,461.5 Z "/><text fill="#000000" font-family="sans-serif" font-size="12" lengthAdjust="spacingAndGlyphs" textLength="66" x="458.85" y="460.0352">INVMOVEID</text><line style="stroke: #3E93B5; stroke-width: 1.5;" x1="399.5" x2="552.5" y1="471.5" y2="471.5"/><text fill="#4041A4" font-family="sans-serif" font-size="14" font-weight="bold" lengthAdjust="spacingAndGlyphs" textLength="143" x="404.5" y="489.0352">INVMOVE_ID: String</text><text fill="#000000" font-family="sans-serif" font-size="11" lengthAdjust="spacingAndGlyphs" textLength="31" x="404.5" y="502.623">NAME</text><line style="stroke: #3E93B5; stroke-width: 1.5;" x1="399.5" x2="552.5" y1="508.9434" y2="508.9434"/><rect fill="#EFF5F8" filter="url(#f1)" height="204.6387" style="stroke: #3E93B5; stroke-width: 1.5;" width="120" x="613" y="376"/><ellipse cx="634.75" cy="392" fill="#3E93B5" rx="11" ry="11" style="stroke: #3E93B5; stroke-width: 1.0;"/><path d="M634.3359,387.8149 L634.3359,395.792 L635,395.792 Q636.4443,395.792 637.0586,394.8831 Q637.6729,393.9741 637.6729,391.791 Q637.6729,389.6245 637.0586,388.7197 Q636.4443,387.8149 635,387.8149 Z M631.8872,385.6069 L634.5103,385.6069 Q637.5483,385.6069 638.8848,387.0554 Q640.2212,388.5039 640.2212,391.791 Q640.2212,395.0864 638.8848,396.5432 Q637.5483,398 634.5103,398 L631.8872,398 Z "/><text fill="#000000" font-family="sans-serif" font-size="12" lengthAdjust="spacingAndGlyphs" textLength="73" x="650.25" y="396.5352">Stock Master</text><line style="stroke: #3E93B5; stroke-width: 1.5;" x1="614" x2="732" y1="408" y2="408"/><text fill="#4041A4" font-family="sans-serif" font-size="14" font-weight="bold" lengthAdjust="spacingAndGlyphs" textLength="102" x="619" y="425.5352">STK_ID: String</text><text fill="#000000" font-family="sans-serif" font-size="11" lengthAdjust="spacingAndGlyphs" textLength="81" x="619" y="439.123">UOM_ID: String</text><text fill="#6666FF" font-family="sans-serif" font-size="12" font-weight="bold" lengthAdjust="spacingAndGlyphs" textLength="108" x="619" y="453.0449">BRAND_ID: String</text><text fill="#6666FF" font-family="sans-serif" font-size="12" font-weight="bold" lengthAdjust="spacingAndGlyphs" textLength="98" x="619" y="467.1777">CAT1_ID: String</text><text fill="#6666FF" font-family="sans-serif" font-size="12" font-weight="bold" lengthAdjust="spacingAndGlyphs" textLength="98" x="619" y="481.3105">CAT2_ID: String</text><text fill="#6666FF" font-family="sans-serif" font-size="12" font-weight="bold" lengthAdjust="spacingAndGlyphs" textLength="98" x="619" y="495.4434">CAT3_ID: String</text><text fill="#6666FF" font-family="sans-serif" font-size="12" font-weight="bold" lengthAdjust="spacingAndGlyphs" textLength="98" x="619" y="509.5762">CAT4_ID: String</text><text fill="#6666FF" font-family="sans-serif" font-size="12" font-weight="bold" lengthAdjust="spacingAndGlyphs" textLength="98" x="619" y="523.709">CAT5_ID: String</text><text fill="#6666FF" font-family="sans-serif" font-size="12" font-weight="bold" lengthAdjust="spacingAndGlyphs" textLength="98" x="619" y="537.8418">CAT6_ID: String</text><text fill="#6666FF" font-family="sans-serif" font-size="12" font-weight="bold" lengthAdjust="spacingAndGlyphs" textLength="98" x="619" y="551.9746">CAT7_ID: String</text><text fill="#6666FF" font-family="sans-serif" font-size="12" font-weight="bold" lengthAdjust="spacingAndGlyphs" textLength="98" x="619" y="566.1074">CAT8_ID: String</text><line style="stroke: #3E93B5; stroke-width: 1.5;" x1="614" x2="732" y1="572.6387" y2="572.6387"/><rect fill="#CDCDCD" filter="url(#f1)" height="77.4434" style="stroke: #3E93B5; stroke-width: 1.5;" width="137" x="38.5" y="660"/><ellipse cx="85.75" cy="676" fill="#3E93B5" rx="11" ry="11" style="stroke: #3E93B5; stroke-width: 1.0;"/><path d="M85.3359,671.8149 L85.3359,679.792 L86,679.792 Q87.4443,679.792 88.0586,678.8831 Q88.6729,677.9741 88.6729,675.791 Q88.6729,673.6245 88.0586,672.7197 Q87.4443,671.8149 86,671.8149 Z M82.8872,669.6069 L85.5103,669.6069 Q88.5483,669.6069 89.8848,671.0554 Q91.2212,672.5039 91.2212,675.791 Q91.2212,679.0864 89.8848,680.5432 Q88.5483,682 85.5103,682 L82.8872,682 Z "/><text fill="#000000" font-family="sans-serif" font-size="12" lengthAdjust="spacingAndGlyphs" textLength="34" x="106.25" y="680.5352">Brand</text><line style="stroke: #3E93B5; stroke-width: 1.5;" x1="39.5" x2="174.5" y1="692" y2="692"/><text fill="#4041A4" font-family="sans-serif" font-size="14" font-weight="bold" lengthAdjust="spacingAndGlyphs" textLength="125" x="44.5" y="709.5352">BRAND_ID: String</text><text fill="#000000" font-family="sans-serif" font-size="11" lengthAdjust="spacingAndGlyphs" textLength="31" x="44.5" y="723.123">NAME</text><line style="stroke: #3E93B5; stroke-width: 1.5;" x1="39.5" x2="174.5" y1="729.4434" y2="729.4434"/><rect fill="#CDCDCD" filter="url(#f1)" height="77.4434" style="stroke: #3E93B5; stroke-width: 1.5;" width="125" x="210.5" y="660"/><ellipse cx="255.25" cy="676" fill="#3E93B5" rx="11" ry="11" style="stroke: #3E93B5; stroke-width: 1.0;"/><path d="M254.8359,671.8149 L254.8359,679.792 L255.5,679.792 Q256.9443,679.792 257.5586,678.8831 Q258.1729,677.9741 258.1729,675.791 Q258.1729,673.6245 257.5586,672.7197 Q256.9443,671.8149 255.5,671.8149 Z M252.3872,669.6069 L255.0103,669.6069 Q258.0483,669.6069 259.3848,671.0554 Q260.7212,672.5039 260.7212,675.791 Q260.7212,679.0864 259.3848,680.5432 Q258.0483,682 255.0103,682 L252.3872,682 Z "/><text fill="#000000" font-family="sans-serif" font-size="12" lengthAdjust="spacingAndGlyphs" textLength="27" x="275.75" y="680.5352">Cat1</text><line style="stroke: #3E93B5; stroke-width: 1.5;" x1="211.5" x2="334.5" y1="692" y2="692"/><text fill="#4041A4" font-family="sans-serif" font-size="14" font-weight="bold" lengthAdjust="spacingAndGlyphs" textLength="113" x="216.5" y="709.5352">CAT1_ID: String</text><text fill="#000000" font-family="sans-serif" font-size="11" lengthAdjust="spacingAndGlyphs" textLength="31" x="216.5" y="723.123">NAME</text><line style="stroke: #3E93B5; stroke-width: 1.5;" x1="211.5" x2="334.5" y1="729.4434" y2="729.4434"/><rect fill="#CDCDCD" filter="url(#f1)" height="77.4434" style="stroke: #3E93B5; stroke-width: 1.5;" width="125" x="370.5" y="660"/><ellipse cx="415.25" cy="676" fill="#3E93B5" rx="11" ry="11" style="stroke: #3E93B5; stroke-width: 1.0;"/><path d="M414.8359,671.8149 L414.8359,679.792 L415.5,679.792 Q416.9443,679.792 417.5586,678.8831 Q418.1729,677.9741 418.1729,675.791 Q418.1729,673.6245 417.5586,672.7197 Q416.9443,671.8149 415.5,671.8149 Z M412.3872,669.6069 L415.0103,669.6069 Q418.0483,669.6069 419.3848,671.0554 Q420.7212,672.5039 420.7212,675.791 Q420.7212,679.0864 419.3848,680.5432 Q418.0483,682 415.0103,682 L412.3872,682 Z "/><text fill="#000000" font-family="sans-serif" font-size="12" lengthAdjust="spacingAndGlyphs" textLength="27" x="435.75" y="680.5352">Cat2</text><line style="stroke: #3E93B5; stroke-width: 1.5;" x1="371.5" x2="494.5" y1="692" y2="692"/><text fill="#4041A4" font-family="sans-serif" font-size="14" font-weight="bold" lengthAdjust="spacingAndGlyphs" textLength="113" x="376.5" y="709.5352">CAT2_ID: String</text><text fill="#000000" font-family="sans-serif" font-size="11" lengthAdjust="spacingAndGlyphs" textLength="31" x="376.5" y="723.123">NAME</text><line style="stroke: #3E93B5; stroke-width: 1.5;" x1="371.5" x2="494.5" y1="729.4434" y2="729.4434"/><rect fill="#CDCDCD" filter="url(#f1)" height="77.4434" style="stroke: #3E93B5; stroke-width: 1.5;" width="125" x="530.5" y="660"/><ellipse cx="575.25" cy="676" fill="#3E93B5" rx="11" ry="11" style="stroke: #3E93B5; stroke-width: 1.0;"/><path d="M574.8359,671.8149 L574.8359,679.792 L575.5,679.792 Q576.9443,679.792 577.5586,678.8831 Q578.1729,677.9741 578.1729,675.791 Q578.1729,673.6245 577.5586,672.7197 Q576.9443,671.8149 575.5,671.8149 Z M572.3872,669.6069 L575.0103,669.6069 Q578.0483,669.6069 579.3848,671.0554 Q580.7212,672.5039 580.7212,675.791 Q580.7212,679.0864 579.3848,680.5432 Q578.0483,682 575.0103,682 L572.3872,682 Z "/><text fill="#000000" font-family="sans-serif" font-size="12" lengthAdjust="spacingAndGlyphs" textLength="27" x="595.75" y="680.5352">Cat3</text><line style="stroke: #3E93B5; stroke-width: 1.5;" x1="531.5" x2="654.5" y1="692" y2="692"/><text fill="#4041A4" font-family="sans-serif" font-size="14" font-weight="bold" lengthAdjust="spacingAndGlyphs" textLength="113" x="536.5" y="709.5352">CAT3_ID: String</text><text fill="#000000" font-family="sans-serif" font-size="11" lengthAdjust="spacingAndGlyphs" textLength="31" x="536.5" y="723.123">NAME</text><line style="stroke: #3E93B5; stroke-width: 1.5;" x1="531.5" x2="654.5" y1="729.4434" y2="729.4434"/><rect fill="#CDCDCD" filter="url(#f1)" height="77.4434" style="stroke: #3E93B5; stroke-width: 1.5;" width="125" x="690.5" y="660"/><ellipse cx="735.25" cy="676" fill="#3E93B5" rx="11" ry="11" style="stroke: #3E93B5; stroke-width: 1.0;"/><path d="M734.8359,671.8149 L734.8359,679.792 L735.5,679.792 Q736.9443,679.792 737.5586,678.8831 Q738.1729,677.9741 738.1729,675.791 Q738.1729,673.6245 737.5586,672.7197 Q736.9443,671.8149 735.5,671.8149 Z M732.3872,669.6069 L735.0103,669.6069 Q738.0483,669.6069 739.3848,671.0554 Q740.7212,672.5039 740.7212,675.791 Q740.7212,679.0864 739.3848,680.5432 Q738.0483,682 735.0103,682 L732.3872,682 Z "/><text fill="#000000" font-family="sans-serif" font-size="12" lengthAdjust="spacingAndGlyphs" textLength="27" x="755.75" y="680.5352">Cat5</text><line style="stroke: #3E93B5; stroke-width: 1.5;" x1="691.5" x2="814.5" y1="692" y2="692"/><text fill="#4041A4" font-family="sans-serif" font-size="14" font-weight="bold" lengthAdjust="spacingAndGlyphs" textLength="113" x="696.5" y="709.5352">CAT5_ID: String</text><text fill="#000000" font-family="sans-serif" font-size="11" lengthAdjust="spacingAndGlyphs" textLength="31" x="696.5" y="723.123">NAME</text><line style="stroke: #3E93B5; stroke-width: 1.5;" x1="691.5" x2="814.5" y1="729.4434" y2="729.4434"/><rect fill="#CDCDCD" filter="url(#f1)" height="77.4434" style="stroke: #3E93B5; stroke-width: 1.5;" width="125" x="850.5" y="660"/><ellipse cx="895.25" cy="676" fill="#3E93B5" rx="11" ry="11" style="stroke: #3E93B5; stroke-width: 1.0;"/><path d="M894.8359,671.8149 L894.8359,679.792 L895.5,679.792 Q896.9443,679.792 897.5586,678.8831 Q898.1729,677.9741 898.1729,675.791 Q898.1729,673.6245 897.5586,672.7197 Q896.9443,671.8149 895.5,671.8149 Z M892.3872,669.6069 L895.0103,669.6069 Q898.0483,669.6069 899.3848,671.0554 Q900.7212,672.5039 900.7212,675.791 Q900.7212,679.0864 899.3848,680.5432 Q898.0483,682 895.0103,682 L892.3872,682 Z "/><text fill="#000000" font-family="sans-serif" font-size="12" lengthAdjust="spacingAndGlyphs" textLength="27" x="915.75" y="680.5352">Cat6</text><line style="stroke: #3E93B5; stroke-width: 1.5;" x1="851.5" x2="974.5" y1="692" y2="692"/><text fill="#4041A4" font-family="sans-serif" font-size="14" font-weight="bold" lengthAdjust="spacingAndGlyphs" textLength="113" x="856.5" y="709.5352">CAT6_ID: String</text><text fill="#000000" font-family="sans-serif" font-size="11" lengthAdjust="spacingAndGlyphs" textLength="31" x="856.5" y="723.123">NAME</text><line style="stroke: #3E93B5; stroke-width: 1.5;" x1="851.5" x2="974.5" y1="729.4434" y2="729.4434"/><rect fill="#CDCDCD" filter="url(#f1)" height="77.4434" style="stroke: #3E93B5; stroke-width: 1.5;" width="125" x="1010.5" y="660"/><ellipse cx="1055.25" cy="676" fill="#3E93B5" rx="11" ry="11" style="stroke: #3E93B5; stroke-width: 1.0;"/><path d="M1054.8359,671.8149 L1054.8359,679.792 L1055.5,679.792 Q1056.9443,679.792 1057.5586,678.8831 Q1058.1729,677.9741 1058.1729,675.791 Q1058.1729,673.6245 1057.5586,672.7197 Q1056.9443,671.8149 1055.5,671.8149 Z M1052.3872,669.6069 L1055.0103,669.6069 Q1058.0483,669.6069 1059.3848,671.0554 Q1060.7212,672.5039 1060.7212,675.791 Q1060.7212,679.0864 1059.3848,680.5432 Q1058.0483,682 1055.0103,682 L1052.3872,682 Z "/><text fill="#000000" font-family="sans-serif" font-size="12" lengthAdjust="spacingAndGlyphs" textLength="27" x="1075.75" y="680.5352">Cat7</text><line style="stroke: #3E93B5; stroke-width: 1.5;" x1="1011.5" x2="1134.5" y1="692" y2="692"/><text fill="#4041A4" font-family="sans-serif" font-size="14" font-weight="bold" lengthAdjust="spacingAndGlyphs" textLength="113" x="1016.5" y="709.5352">CAT7_ID: String</text><text fill="#000000" font-family="sans-serif" font-size="11" lengthAdjust="spacingAndGlyphs" textLength="31" x="1016.5" y="723.123">NAME</text><line style="stroke: #3E93B5; stroke-width: 1.5;" x1="1011.5" x2="1134.5" y1="729.4434" y2="729.4434"/><rect fill="#CDCDCD" filter="url(#f1)" height="77.4434" style="stroke: #3E93B5; stroke-width: 1.5;" width="125" x="1170.5" y="660"/><ellipse cx="1215.25" cy="676" fill="#3E93B5" rx="11" ry="11" style="stroke: #3E93B5; stroke-width: 1.0;"/><path d="M1214.8359,671.8149 L1214.8359,679.792 L1215.5,679.792 Q1216.9443,679.792 1217.5586,678.8831 Q1218.1729,677.9741 1218.1729,675.791 Q1218.1729,673.6245 1217.5586,672.7197 Q1216.9443,671.8149 1215.5,671.8149 Z M1212.3872,669.6069 L1215.0103,669.6069 Q1218.0483,669.6069 1219.3848,671.0554 Q1220.7212,672.5039 1220.7212,675.791 Q1220.7212,679.0864 1219.3848,680.5432 Q1218.0483,682 1215.0103,682 L1212.3872,682 Z "/><text fill="#000000" font-family="sans-serif" font-size="12" lengthAdjust="spacingAndGlyphs" textLength="27" x="1235.75" y="680.5352">Cat8</text><line style="stroke: #3E93B5; stroke-width: 1.5;" x1="1171.5" x2="1294.5" y1="692" y2="692"/><text fill="#4041A4" font-family="sans-serif" font-size="14" font-weight="bold" lengthAdjust="spacingAndGlyphs" textLength="113" x="1176.5" y="709.5352">CAT8_ID: String</text><text fill="#000000" font-family="sans-serif" font-size="11" lengthAdjust="spacingAndGlyphs" textLength="31" x="1176.5" y="723.123">NAME</text><line style="stroke: #3E93B5; stroke-width: 1.5;" x1="1171.5" x2="1294.5" y1="729.4434" y2="729.4434"/><path d="M476,276.501 C476,329.837 476,393.312 476,434.339 " fill="none" style="stroke: #1078A1; stroke-width: 1.0;"/><polygon fill="#1078A1" points="476,439.477,480,430.477,476,434.477,472,430.477,476,439.477" style="stroke: #1078A1; stroke-width: 1.0;"/><text fill="#000000" font-family="sans-serif" font-size="13" lengthAdjust="spacingAndGlyphs" textLength="79" x="457.8238" y="297.5059">INVMOVE_ID</text><path d="M417.31,276.501 C384.843,330.162 346.165,394.088 321.359,435.088 " fill="none" style="stroke: #1078A1; stroke-width: 1.0;"/><polygon fill="#1078A1" points="318.703,439.477,326.7842,433.8472,321.2912,435.199,319.9394,429.7061,318.703,439.477" style="stroke: #1078A1; stroke-width: 1.0;"/><text fill="#000000" font-family="sans-serif" font-size="13" lengthAdjust="spacingAndGlyphs" textLength="61" x="333.4551" y="297.3548">STORE_ID</text><path d="M540.233,276.501 C562.584,310.255 587.624,348.069 609.884,381.685 " fill="none" style="stroke: #1078A1; stroke-width: 1.0;"/><polygon fill="#1078A1" points="612.865,386.187,611.2317,376.4745,610.1047,382.018,604.5612,380.891,612.865,386.187" style="stroke: #1078A1; stroke-width: 1.0;"/><text fill="#000000" font-family="sans-serif" font-size="13" lengthAdjust="spacingAndGlyphs" textLength="44" x="558.0186" y="292.8113">STK_ID</text><path d="M612.778,566.507 C600.344,579.472 586.313,591.356 571,600 C422.869,683.6197 356.275,612.288 193,660 C188.955,661.182 184.848,662.508 180.735,663.938 " fill="none" style="stroke: #1078A1; stroke-width: 1.0;"/><polygon fill="#1078A1" points="175.906,665.66,185.7266,666.4056,180.6157,663.981,183.0402,658.8701,175.906,665.66" style="stroke: #1078A1; stroke-width: 1.0;"/><text fill="#000000" font-family="sans-serif" font-size="13" lengthAdjust="spacingAndGlyphs" textLength="65" x="540.0995" y="570.7702">BRAND_ID</text><path d="M612.793,564.17 C600.234,577.637 586.156,590.296 571,600 C486.368,654.185 447.279,625.215 353,660 C348.966,661.488 344.856,663.1 340.736,664.791 " fill="none" style="stroke: #1078A1; stroke-width: 1.0;"/><polygon fill="#1078A1" points="335.898,666.809,345.7442,667.0367,340.5128,664.8845,342.665,659.6531,335.898,666.809" style="stroke: #1078A1; stroke-width: 1.0;"/><text fill="#000000" font-family="sans-serif" font-size="13" lengthAdjust="spacingAndGlyphs" textLength="55" x="549.9816" y="585.0662">CAT1_ID</text><path d="M612.974,556.253 C599.815,571.411 585.471,586.714 571,600 C548.531,620.63 521.546,640.587 497.422,657.014 " fill="none" style="stroke: #1078A1; stroke-width: 1.0;"/><polygon fill="#1078A1" points="493.265,659.829,502.9597,658.0934,497.4047,657.0249,498.4732,651.4699,493.265,659.829" style="stroke: #1078A1; stroke-width: 1.0;"/><text fill="#000000" font-family="sans-serif" font-size="13" lengthAdjust="spacingAndGlyphs" textLength="55" x="549.9052" y="560.3288">CAT2_ID</text><path d="M635.927,580.255 C626.276,606.616 616.396,633.601 608.551,655.027 " fill="none" style="stroke: #1078A1; stroke-width: 1.0;"/><polygon fill="#1078A1" points="606.807,659.79,613.6573,652.7137,608.5259,655.0948,606.1449,649.9634,606.807,659.79" style="stroke: #1078A1; stroke-width: 1.0;"/><text fill="#000000" font-family="sans-serif" font-size="13" lengthAdjust="spacingAndGlyphs" textLength="55" x="575.9831" y="601.2139">CAT3_ID</text><path d="M710.073,580.255 C719.724,606.616 729.604,633.601 737.449,655.027 " fill="none" style="stroke: #1078A1; stroke-width: 1.0;"/><polygon fill="#1078A1" points="739.193,659.79,739.8551,649.9634,737.4741,655.0948,732.3427,652.7137,739.193,659.79" style="stroke: #1078A1; stroke-width: 1.0;"/><text fill="#000000" font-family="sans-serif" font-size="13" lengthAdjust="spacingAndGlyphs" textLength="55" x="725.8127" y="600.8799">CAT5_ID</text><path d="M733.252,533.855 C774.917,571.787 829.484,621.466 867.519,656.094 " fill="none" style="stroke: #1078A1; stroke-width: 1.0;"/><polygon fill="#1078A1" points="871.61,659.818,867.6476,650.8014,867.9127,656.452,862.2621,656.7171,871.61,659.818" style="stroke: #1078A1; stroke-width: 1.0;"/><text fill="#000000" font-family="sans-serif" font-size="13" lengthAdjust="spacingAndGlyphs" textLength="55" x="741.0674" y="535.7154">CAT6_ID</text><path d="M733.317,511.948 C806.501,551.925 929.523,619.126 1005.713,660.744 " fill="none" style="stroke: #1078A1; stroke-width: 1.0;"/><polygon fill="#1078A1" points="1010.21,663.201,1004.227,655.3777,1005.8213,660.8052,1000.3938,662.3996,1010.21,663.201" style="stroke: #1078A1; stroke-width: 1.0;"/><text fill="#000000" font-family="sans-serif" font-size="13" lengthAdjust="spacingAndGlyphs" textLength="55" x="740.8638" y="511.7751">CAT7_ID</text><path d="M733.079,499.958 C824.555,532.249 1003.875,597.045 1153,660 C1157.15,661.752 1161.4,663.596 1165.68,665.488 " fill="none" style="stroke: #1078A1; stroke-width: 1.0;"/><polygon fill="#1078A1" points="1170.32,667.557,1163.7376,660.2308,1165.7558,665.5155,1160.4712,667.5336,1170.32,667.557" style="stroke: #1078A1; stroke-width: 1.0;"/><text fill="#000000" font-family="sans-serif" font-size="13" lengthAdjust="spacingAndGlyphs" textLength="55" x="740.879" y="498.7994">CAT8_ID</text></g></svg>